<?xml version="1.0" encoding="UTF-8" standalone="no"?>
<!-- Created with Inkscape (http://www.inkscape.org/) -->

<svg
   width="200"
   height="200"
   viewBox="0 0 52.916668 52.916666"
   version="1.1"
   id="svg8"
   inkscape:version="1.4.2 (f4327f4, 2025-05-13)"
   sodipodi:docname="markets.svg"
   xmlns:inkscape="http://www.inkscape.org/namespaces/inkscape"
   xmlns:sodipodi="http://sodipodi.sourceforge.net/DTD/sodipodi-0.dtd"
   xmlns="http://www.w3.org/2000/svg"
   xmlns:svg="http://www.w3.org/2000/svg"
   xmlns:rdf="http://www.w3.org/1999/02/22-rdf-syntax-ns#"
   xmlns:cc="http://creativecommons.org/ns#"
   xmlns:dc="http://purl.org/dc/elements/1.1/">
  <defs
     id="defs2">
    <rect
       x="12.727922"
       y="145.664"
       width="183.84776"
       height="70.710678"
       id="rect1" />
    <inkscape:path-effect
       effect="envelope"
       id="path-effect4658"
       is_visible="true"
       yy="true"
       xx="true"
       bendpath1="m -199.08406,108.42369 h 7.0057"
       bendpath2="m -192.07836,108.42369 v 6.75242"
       bendpath3="m -199.08406,115.17611 h 7.0057"
       bendpath4="m -199.08406,108.42369 v 6.75242" />
    <inkscape:path-effect
       effect="bend_path"
       id="path-effect4656"
       is_visible="true"
       bendpath="m -192.00142,114.60623 c 2.12577,-0.53066 4.48261,0.85111 7.0057,0"
       prop_scale="1"
       scale_y_rel="false"
       vertical="false"
       bendpath-nodetypes="cc" />
    <inkscape:path-effect
       effect="bounding_box"
       id="path-effect4654"
       is_visible="true"
       linkedpath=""
       visualbounds="false" />
  </defs>
  <sodipodi:namedview
     id="base"
     pagecolor="#ffffff"
     bordercolor="#666666"
     borderopacity="1.0"
     inkscape:pageopacity="0.0"
     inkscape:pageshadow="2"
     inkscape:zoom="0.70710678"
     inkscape:cx="859.84185"
     inkscape:cy="-94.045202"
     inkscape:document-units="mm"
     inkscape:current-layer="layer1"
     showgrid="false"
     fit-margin-top="0"
     fit-margin-left="0"
     fit-margin-right="0"
     fit-margin-bottom="0"
     inkscape:window-width="1920"
     inkscape:window-height="991"
     inkscape:window-x="-9"
     inkscape:window-y="-9"
     inkscape:window-maximized="1"
     showguides="false"
     inkscape:object-nodes="true"
     units="px"
     inkscape:snap-page="true"
     inkscape:showpageshadow="0"
     inkscape:pagecheckerboard="0"
     inkscape:deskcolor="#505050" />
  <metadata
     id="metadata5">
    <rdf:RDF>
      <cc:Work
         rdf:about="">
        <dc:format>image/svg+xml</dc:format>
        <dc:type
           rdf:resource="http://purl.org/dc/dcmitype/StillImage" />
        <dc:title />
      </cc:Work>
    </rdf:RDF>
  </metadata>
  <g
     inkscape:label="Layer 1"
     inkscape:groupmode="layer"
     id="layer1"
     transform="translate(249.80447,-91.409467)">
    <g
       style="stroke-width:0.5"
       id="g5334"
       transform="matrix(2,0,0,2,-249.80447,91.409467)">
      <rect
         ry="1.984375"
         rx="1.984375"
         style="opacity:1;fill:#222222;fill-opacity:1;fill-rule:nonzero;stroke:none;stroke-width:0.25;stroke-linecap:butt;stroke-linejoin:round;stroke-miterlimit:4;stroke-dasharray:none;stroke-dashoffset:0;stroke-opacity:0.90944878;paint-order:normal"
         id="rect5322"
         width="26.458334"
         height="26.458334"
         x="0"
         y="-1.110223e-16" />
      <rect
         ry="1.3229166"
         rx="1.3229166"
         y="1.322917"
         x="1.322917"
         height="23.8125"
         width="23.8125"
         id="rect5324"
         style="opacity:1;fill:#00897b;fill-opacity:1;fill-rule:nonzero;stroke:none;stroke-width:0.25;stroke-linecap:butt;stroke-linejoin:round;stroke-miterlimit:4;stroke-dasharray:none;stroke-dashoffset:0;stroke-opacity:0.90944878;paint-order:normal" />
      <path
         inkscape:connector-curvature="0"
         id="path5326"
         d="m 0.72760467,18.520836 v 4.167188 c 0,1.539081 1.23904383,2.778124 2.77812503,2.778124 H 22.952604 c 1.539081,0 2.778125,-1.239043 2.778125,-2.778124 v -4.167188 z"
         style="opacity:1;fill:#222222;fill-opacity:1;fill-rule:nonzero;stroke:none;stroke-width:0.24999999;stroke-linecap:butt;stroke-linejoin:round;stroke-miterlimit:4;stroke-dasharray:none;stroke-dashoffset:0;stroke-opacity:0.90944878;paint-order:normal" />
      <path
         style="fill:#222222;fill-opacity:1;stroke-width:0.5"
         d="M 9.402202,18.520836 9.3842353,17.714385 8.7707532,17.612582 C 8.1138401,17.503572 7.2415254,17.250004 6.7688637,17.030669 5.9935039,16.670865 5.1956549,15.936571 4.9192966,15.328429 4.7733514,15.00727 4.7427698,14.852188 4.7438705,14.438837 c 0.00158,-0.597901 0.1498429,-0.938029 0.5540116,-1.271053 0.4177441,-0.344212 0.8957956,-0.507124 1.50327,-0.512292 0.5940108,-0.005 0.967738,0.115408 1.3599039,0.438346 1.2780673,1.052439 0.5843599,2.795862 -1.181084,2.968295 l -0.413681,0.04041 0.180008,0.17136 c 0.3424198,0.325973 1.1140979,0.626783 2.0760653,0.809279 0.6640289,0.125971 0.5941596,0.42663 0.5941596,-2.556758 V 11.904742 L 9.0774941,11.763171 C 8.8910279,11.685314 8.4861275,11.515931 8.1777156,11.386766 6.7313225,10.781013 5.720306,9.8937709 5.3432851,8.8993427 5.0479427,8.1203492 5.1364793,6.8520664 5.5433302,6.0336994 6.1097441,4.8943785 7.4248515,4.0262524 9.0452057,3.7220492 l 0.3713182,-0.06971 V 2.8908535 2.1293682 h 0.2583083 0.2583083 v 0.7362127 0.736212 h 0.6457715 0.645771 V 2.8655809 2.1293682 h 0.290596 0.290597 v 0.7656611 c 0,0.4211134 0.0218,0.7658609 0.04843,0.7661056 0.214223,0.00197 0.952992,0.1475188 1.352563,0.266479 1.647274,0.4904269 2.62301,1.3571426 2.715888,2.4124377 0.04107,0.4666781 -0.08942,0.8239198 -0.424568,1.1622535 C 15.118297,7.8858179 14.836133,7.9887054 14.16294,7.989196 13.631335,7.989607 13.551591,7.974022 13.228292,7.8067721 12.800408,7.5854242 12.491929,7.2031327 12.383007,6.7592262 c -0.06871,-0.2800274 -0.06207,-0.3634799 0.0575,-0.7225142 0.142449,-0.4277199 0.280509,-0.5849832 0.765472,-0.8719213 0.202322,-0.1197082 0.36002,-0.1621559 0.629103,-0.1693363 0.197502,-0.00527 0.359334,-0.029129 0.359623,-0.053016 0.0019,-0.1545445 -1.026083,-0.5681251 -1.71077,-0.6883032 -0.213104,-0.037405 -0.45317,-0.080796 -0.533479,-0.096425 l -0.146016,-0.028419 0.01686,2.4195036 0.01686,2.4195043 0.633602,0.2272833 c 1.370901,0.4917626 2.561358,1.1150746 3.199509,1.6752286 0.884419,0.776326 1.16184,1.294261 1.21711,2.27229 0.06066,1.073182 -0.157017,1.861345 -0.735324,2.66262 -0.521865,0.72307 -1.273547,1.201124 -2.432831,1.547225 -0.385558,0.115114 -0.974017,0.240735 -1.307686,0.279172 l -0.606669,0.06989 v 0.81264 0.812643 h -0.290592 -0.290596 v -0.79511 -0.79511 H 10.578912 9.9331405 v 0.79511 0.795108 H 9.6766546 9.4201685 Z m 1.580316,-1.313036 0.242165,-8.12e-4 V 14.857297 12.5076 l -0.58164,-0.212321 c -0.319901,-0.116778 -0.610499,-0.212322 -0.6457706,-0.212322 -0.041467,0 -0.064131,0.903997 -0.064131,2.558633 v 2.558632 l 0.2744526,0.02366 c 0.150949,0.01296 0.332573,0.01491 0.403607,0.0043 0.07104,-0.01075 0.238128,-0.01984 0.371318,-0.02027 z m 1.531619,-0.339787 c 0.485697,-0.208834 1.050883,-0.710139 1.231991,-1.092741 0.200732,-0.424062 0.203264,-1.131137 0.0055,-1.538866 -0.274099,-0.565145 -0.726598,-0.944109 -1.62073,-1.357346 l -0.325014,-0.15022 v 2.186566 2.186566 l 0.1755,-0.04017 c 0.09652,-0.0221 0.336268,-0.109294 0.532761,-0.193783 z M 11.224683,6.4288476 V 4.072969 l -0.403608,6.588e-4 c -0.221983,3.564e-4 -0.512938,0.017132 -0.646566,0.037273 l -0.2429617,0.036624 0.01694,2.1229688 0.01694,2.122969 0.1614437,0.042987 c 0.08879,0.023644 0.36486,0.1106938 0.613482,0.1934343 0.248622,0.082748 0.459305,0.1514358 0.468184,0.1526467 0.0089,0.00122 0.01615,-1.0579438 0.01615,-2.3536777 z M 9.4165239,6.2227086 c 0,-2.1780523 0.040029,-2.0522223 -0.5539916,-1.7414769 C 8.3787625,4.7343033 7.9129084,5.2270085 7.7725255,5.6340645 7.5337467,6.3264327 7.7293625,6.9430095 8.3637291,7.4975217 8.6004502,7.7044444 9.2685506,8.1277474 9.368091,8.1338773 9.394729,8.1354973 9.416524,7.2754917 9.4165239,6.2227086 Z"
         id="path5347"
         inkscape:connector-curvature="0" />
      <path
         d="m -229.82016,138.43916 h -1.12448 v -4.22507 h 2.76159 v -0.95911 h -3.3321 v -1.07487 h 3.23701 q -0.16123,-0.41754 -0.31006,-0.77721 l 1.31465,-0.30593 q 0.19844,0.51677 0.38447,1.08314 h 3.27009 v 1.07487 h -3.37344 v 0.95911 h 2.96003 v 2.93523 q 0,0.3638 -0.11576,0.62838 -0.11162,0.26458 -0.33486,0.42168 -0.22324,0.1571 -0.51677,0.19844 -0.29352,0.0455 -1.36425,0.0579 -0.13229,-0.54571 -0.30593,-1.07487 0.45475,0.0331 0.93431,0.0331 0.57878,0 0.57878,-0.55397 v -1.60404 h -1.83555 v 4.0597 h -1.19062 v -4.0597 h -1.63711 z m 11.58379,-4.29121 h 2.96829 q 0,1.71979 -0.0992,3.5388 -0.0579,1.37253 -1.2485,1.45521 -0.44649,0.0331 -1.05833,0.0496 -0.0579,-0.48783 -0.20671,-1.14929 -0.47129,0.678 -1.10794,1.2237 -0.47129,-0.3638 -1.00046,-0.71107 1.80248,-1.37252 2.22415,-3.41477 h -0.66972 q -0.45475,1.67018 -1.54616,2.67063 -0.19844,-0.17363 -0.38861,-0.33073 -0.008,0.28112 0,0.61185 -1.46347,0.29766 -2.66237,0.57878 l -0.21497,-1.18236 q 0.47956,-0.0827 0.96738,-0.17363 v -2.91868 h -0.8847 v -1.13275 h 0.8847 v -2.09186 h 1.09968 v 2.09186 h 0.78548 v 1.13275 h -0.78548 v 2.70371 q 0.19843,-0.0413 0.3886,-0.0827 0.91778,-0.7276 1.30638,-1.87688 h -0.73587 v -0.98392 l 2.46393,-1.59577 h -2.4722 v -0.99219 h 4.41524 v 0.95085 z m 1.0914,3.88607 q 0.68627,0 0.72761,-0.58705 0.0744,-0.85163 0.10748,-2.30683 h -0.42994 q -0.30593,1.66191 -1.11622,2.86907 0.38861,0.0248 0.71107,0.0248 z"
         id="text1"
         style="font-weight:600;font-size:32px;font-family:Montserrat;-inkscape-font-specification:'Montserrat Semi-Bold';letter-spacing:0px;white-space:pre;fill:#ffffff;stroke-width:0.264583"
         aria-label="市场"
         transform="matrix(0.50000001,0,0,0.50000001,124.90224,-45.704734)"
         inkscape:label="text" />
    </g>
  </g>
</svg>
