<?xml version="1.0" encoding="UTF-8" standalone="no"?>
<!-- Created with Inkscape (http://www.inkscape.org/) -->

<svg
   width="200"
   height="200"
   viewBox="0 0 52.916668 52.916666"
   version="1.1"
   id="svg8"
   inkscape:version="1.4.2 (f4327f4, 2025-05-13)"
   sodipodi:docname="tradition.svg"
   xmlns:inkscape="http://www.inkscape.org/namespaces/inkscape"
   xmlns:sodipodi="http://sodipodi.sourceforge.net/DTD/sodipodi-0.dtd"
   xmlns="http://www.w3.org/2000/svg"
   xmlns:svg="http://www.w3.org/2000/svg"
   xmlns:rdf="http://www.w3.org/1999/02/22-rdf-syntax-ns#"
   xmlns:cc="http://creativecommons.org/ns#"
   xmlns:dc="http://purl.org/dc/elements/1.1/">
  <defs
     id="defs2">
    <rect
       x="8"
       y="144"
       width="198"
       height="56"
       id="rect1" />
    <inkscape:path-effect
       effect="envelope"
       id="path-effect4658"
       is_visible="true"
       yy="true"
       xx="true"
       bendpath1="m -199.08406,108.42369 h 7.0057"
       bendpath2="m -192.07836,108.42369 v 6.75242"
       bendpath3="m -199.08406,115.17611 h 7.0057"
       bendpath4="m -199.08406,108.42369 v 6.75242" />
    <inkscape:path-effect
       effect="bend_path"
       id="path-effect4656"
       is_visible="true"
       bendpath="m -192.00142,114.60623 c 2.12577,-0.53066 4.48261,0.85111 7.0057,0"
       prop_scale="1"
       scale_y_rel="false"
       vertical="false"
       bendpath-nodetypes="cc" />
    <inkscape:path-effect
       effect="bounding_box"
       id="path-effect4654"
       is_visible="true"
       linkedpath=""
       visualbounds="false" />
  </defs>
  <sodipodi:namedview
     id="base"
     pagecolor="#ffffff"
     bordercolor="#666666"
     borderopacity="1.0"
     inkscape:pageopacity="0.0"
     inkscape:pageshadow="2"
     inkscape:zoom="0.5"
     inkscape:cx="618"
     inkscape:cy="151"
     inkscape:document-units="px"
     inkscape:current-layer="layer1"
     showgrid="false"
     fit-margin-top="0"
     fit-margin-left="0"
     fit-margin-right="0"
     fit-margin-bottom="0"
     inkscape:window-width="1920"
     inkscape:window-height="991"
     inkscape:window-x="-9"
     inkscape:window-y="-9"
     inkscape:window-maximized="1"
     showguides="false"
     inkscape:object-nodes="true"
     units="px"
     inkscape:snap-page="true"
     inkscape:showpageshadow="0"
     inkscape:pagecheckerboard="0"
     inkscape:deskcolor="#505050" />
  <metadata
     id="metadata5">
    <rdf:RDF>
      <cc:Work
         rdf:about="">
        <dc:format>image/svg+xml</dc:format>
        <dc:type
           rdf:resource="http://purl.org/dc/dcmitype/StillImage" />
        <dc:title />
      </cc:Work>
    </rdf:RDF>
  </metadata>
  <g
     inkscape:label="Layer 1"
     inkscape:groupmode="layer"
     id="layer1"
     transform="translate(98.048812,-95.14345)">
    <g
       style="stroke-width:0.5"
       transform="matrix(2,0,0,2,-98.048813,95.143449)"
       id="g5361">
      <rect
         y="-1.110223e-16"
         x="0"
         height="26.458334"
         width="26.458334"
         id="rect5349"
         style="opacity:1;fill:#222222;fill-opacity:1;fill-rule:nonzero;stroke:none;stroke-width:0.25;stroke-linecap:butt;stroke-linejoin:round;stroke-miterlimit:4;stroke-dasharray:none;stroke-dashoffset:0;stroke-opacity:0.90944878;paint-order:normal"
         rx="1.984375"
         ry="1.984375" />
      <rect
         style="opacity:1;fill:#8bc34a;fill-opacity:1;fill-rule:nonzero;stroke:none;stroke-width:0.25;stroke-linecap:butt;stroke-linejoin:round;stroke-miterlimit:4;stroke-dasharray:none;stroke-dashoffset:0;stroke-opacity:0.90944878;paint-order:normal"
         id="rect5351"
         width="23.8125"
         height="23.8125"
         x="1.322917"
         y="1.322917"
         rx="1.3229166"
         ry="1.3229166" />
      <path
         style="fill:#222222;fill-opacity:1;stroke-width:0.49999997"
         d="m 2.9744483,20.16467 c 0.025851,-0.04195 0.2799786,-0.453145 0.5647298,-0.913775 l 0.51773,-0.837506 V 12.098099 5.7828098 L 3.4828278,4.8595693 C 3.1670832,4.3517869 2.9239716,3.9211046 2.9425786,3.9024972 c 0.018607,-0.018607 1.8128003,0.00888 3.9870949,0.061076 3.1404885,0.075395 4.7505815,0.075618 7.8313465,0.00109 2.132945,-0.051601 3.895648,-0.076254 3.917116,-0.054787 0.02147,0.021469 -0.222132,0.4647323 -0.541336,0.9850298 l -0.58037,0.9459927 v 6.2683563 6.268356 l 0.572012,0.919918 c 0.314608,0.505953 0.572014,0.925323 0.572014,0.931935 0,0.0066 -3.548927,0.0119 -7.886505,0.01174 -5.238088,-1.48e-4 -7.8707203,-0.02588 -7.8395027,-0.07655 z M 7.1071159,18.505831 C 7.1067982,18.495344 7.0199778,18.231574 6.9141313,17.919675 6.6602368,17.171537 6.567026,16.479939 6.6507551,15.965491 6.7972156,15.0656 7.1919159,14.59443 8.5914282,13.648828 c 1.2252303,-0.827847 1.3381533,-0.953697 1.3381533,-1.491357 0,-0.567258 -0.18976,-0.799234 -1.2573449,-1.537066 C 7.1818506,9.5903667 6.7698476,9.1040832 6.6520448,8.2359913 6.5809442,7.7120497 6.6782013,6.7951575 6.8703763,6.1777022 L 7.0153841,5.7117929 H 5.9556227 4.8958615 v 6.3302831 c 0,5.008398 0.019908,6.332237 0.095336,6.33963 0.096478,0.0094 1.5204493,0.106842 1.9067118,0.130399 0.1153558,0.007 0.2094986,0.0042 0.2092064,-0.0063 z m 9.2099501,-0.104057 0.40041,-0.04039 V 12.036589 5.7117929 h -1.075918 c -0.935185,0 -1.070052,0.01529 -1.031066,0.1168828 0.287462,0.7491104 0.390943,1.2733517 0.390943,1.9805002 0,0.6517236 -0.02576,0.8109467 -0.177022,1.0944074 -0.285103,0.5342567 -0.75634,0.9841316 -1.652659,1.5777377 -1.179178,0.780934 -1.488258,1.131877 -1.487711,1.689213 4.6e-4,0.466155 0.220321,0.716306 1.2303,1.399774 1.608558,1.08854 2.048731,1.645675 2.106725,2.666535 0.03274,0.576277 -0.106356,1.170528 -0.468139,2.000015 l -0.123857,0.283977 0.743793,-0.03933 c 0.409086,-0.02163 0.923977,-0.05751 1.144201,-0.07973 z M 14.305082,16.75165 c 0.153743,-0.573687 -0.07307,-1.177971 -0.625665,-1.666979 -0.325669,-0.288188 -2.238798,-1.593498 -2.335515,-1.593498 -0.07882,0 -0.03847,0.726269 0.06837,1.230293 0.181955,0.858443 0.653518,1.570538 1.252227,1.890956 0.254436,0.13617 0.941637,0.300437 1.279361,0.305813 0.264603,0.0042 0.322635,-0.02255 0.361234,-0.166585 z M 8.5598313,16.72459 c 0.7660262,-0.227486 1.2958632,-0.727431 1.5571147,-1.46927 0.136565,-0.387781 0.319992,-1.663567 0.249339,-1.734219 -0.06193,-0.06193 -1.2859282,0.709899 -1.9507477,1.230085 -0.7973779,0.623905 -1.1337782,1.211503 -1.0361029,1.809782 0.046303,0.283609 0.049716,0.286005 0.4074899,0.286005 0.1984379,0 0.5462464,-0.05507 0.772907,-0.122383 z M 12.73485,9.3374218 c 0.898335,-0.2186926 1.373941,-0.5776885 1.547752,-1.1682657 0.11651,-0.3958868 0.0188,-1.0327042 -0.283659,-1.8486937 L 13.801602,5.7880618 H 10.806668 7.8117368 L 7.6040094,6.3410083 C 7.3403727,7.0427798 7.2557493,8.081268 7.434324,8.4233774 7.7256184,8.9814346 8.3718345,9.3145411 9.4202185,9.4470519 10.185933,9.5438339 12.154398,9.4787229 12.73485,9.3374174 Z"
         id="path5388"
         inkscape:connector-curvature="0" />
      <path
         inkscape:connector-curvature="0"
         id="path5355"
         d="m 0.7276035,18.520835 v 4.167188 c 0,1.539081 1.2390438,2.778125 2.778125,2.778125 H 22.952604 c 1.539081,0 2.778125,-1.239044 2.778125,-2.778125 v -4.167188 z"
         style="opacity:1;fill:#222222;fill-opacity:1;fill-rule:nonzero;stroke:none;stroke-width:0.25;stroke-linecap:butt;stroke-linejoin:round;stroke-miterlimit:4;stroke-dasharray:none;stroke-dashoffset:0;stroke-opacity:0.90944878;paint-order:normal" />
      <path
         d="m 9.863998,19.868555 0.553971,0.165365 q -0.144694,0.522965 -0.326595,0.988053 v 2.931088 H 9.5704758 V 22.11338 Q 9.431983,22.351091 9.2810878,22.568132 9.2356125,22.167123 9.144662,21.78265 9.5787441,21.034376 9.863998,19.868555 Z m 0.649056,0.173633 h 2.422591 v 1.546159 h -0.93431 v 0.37207 h 1.207162 v 0.471289 h -0.94878 q 0.328663,0.444417 0.998389,0.748275 -0.206706,0.330729 -0.326595,0.537435 -0.601514,-0.378272 -0.930176,-0.94878 v 1.184425 h -0.587044 v -1.157552 q -0.411344,0.580842 -0.971517,0.971517 -0.132292,-0.243913 -0.314193,-0.496094 0.560173,-0.322461 0.981853,-0.839226 h -0.866097 v -0.471289 h 1.169954 v -0.37207 h -0.901237 z m 1.872754,0.49196 h -1.322917 v 0.562239 h 1.322917 z m 1.174089,0.773079 v -0.930176 h 1.562695 q -0.07441,-0.276985 -0.124024,-0.44235 l 0.690398,-0.09095 q 0.04754,0.181901 0.132291,0.5333 h 1.488282 v 0.930176 h -0.599447 v -0.417545 h -2.550749 v 0.417545 z m -0.173633,0.248047 h 2.600358 v -0.487825 h 0.615983 v 0.487825 h 0.8847 v 0.545703 h -0.8847 v 1.041797 q 0,0.386539 -0.173633,0.570508 -0.171566,0.183967 -0.487825,0.192236 l -0.818555,0.0186 q -0.07441,-0.355534 -0.148828,-0.615983 0.343131,0.01654 0.628385,0.01654 0.388607,0 0.384473,-0.380338 v -0.84336 h -1.686719 q 0.415479,0.283186 0.884701,0.63252 l -0.405144,0.520898 q -0.475423,-0.434082 -0.913639,-0.735872 l 0.349333,-0.417546 h -0.82889 z"
         id="text1"
         style="font-weight:600;font-size:32px;font-family:Montserrat;-inkscape-font-specification:'Montserrat Semi-Bold';letter-spacing:0px;white-space:pre;fill:#ffffff;stroke-width:0.0661458"
         aria-label="保守"
         inkscape:label="text" />
    </g>
  </g>
</svg>
